<?xml version="1.0" encoding="UTF-8"?>
<svg width="140px" height="30px" viewBox="0 0 140 30" version="1.1" xmlns="http://www.w3.org/2000/svg" xmlns:xlink="http://www.w3.org/1999/xlink">
    <title>logo</title>
    <defs>
        <linearGradient x1="17.264%" y1="78.472%" x2="72.488%" y2="30.4%" id="linearGradient-1">
            <stop stop-color="#0397A7" offset="0.044188%"></stop>
            <stop stop-color="#00ECCD" offset="99.71%"></stop>
        </linearGradient>
    </defs>
    <g id="logo" stroke="none" stroke-width="1" fill="none" fill-rule="evenodd">
        <g id="téléchargement" fill-rule="nonzero">
            <path d="M31.403,11.198 L23.0592,1.013 C22.45202,0.27583 21.5119,-0.0734 20.5717,0.06244 L7.4877,2.13814 C6.54756,2.29333 5.7641,2.9141 5.4116,3.80644 L0.6717,16.06644 C0.33873,16.9588 0.49542,17.94814 1.08301,18.68534 L9.42681,28.87034 C10.03399,29.60751 10.97411,29.95674 11.91431,29.8209 L24.99831,27.7452 C25.93845,27.59001 26.72191,26.96924 27.07441,26.0769 L31.81431,13.8169 C32.16686,12.92454 32.01017,11.9352 31.403,11.198 Z" id="Path" fill="url(#linearGradient-1)"></path>
            <polygon id="Path" fill="#FFFFFF" points="19.809 9.0152 16.875 14.265 13.98 8.0467 10.365 8.9959 5.8963 20.618 9.8797 20.618 12.581 13.761 15.223 20.289 17.264 20.289 21.189 13.296 21.189 22.245 24.9 20.986 24.9 9.9256"></polygon>
            <g id="Group" transform="translate(33.200000, 9.000000)" fill="#0C193A">
                <path d="M43.401,4.3819 C44.4108,3.42515 45.6342,2.9659 47.11,2.9659 C48.5858,2.9659 49.8287,3.42514 50.819,4.3819 C51.8288,5.31952 52.3143,6.525 52.3143,7.9984 C52.3143,9.4718 51.80941,10.6773 50.819,11.5958 C49.82859,12.5143 48.6052,12.9735 47.11,12.9735 C45.6342,12.9735 44.3913,12.51426 43.401,11.5958 C42.41063,10.65818 41.9252,9.4527 41.9252,7.9984 C41.9252,6.525 42.43009,5.3195 43.401,4.3819 Z M47.1294,10.1798 C48.2169,10.1798 49.1101,9.31872 49.1101,7.9984 C49.1101,6.6589 48.23625,5.7787 47.1294,5.7787 C46.0419,5.7787 45.1487,6.67805 45.1487,7.9984 C45.1487,9.3187 46.02255,10.1798 47.1294,10.1798 Z M37.6335,2.985 C39.8667,2.985 40.8376,4.1714 40.8376,6.2571 L40.8376,12.7439 L37.2257,12.7439 L37.2257,7.0034 C37.2257,6.41021 37.01209,6.06578 36.54604,6.06578 C36.11882,6.06578 35.28384,6.21886 34.75954,6.58243 L34.75954,12.76303 L31.18644,12.76303 L31.18644,3.17643 L34.13814,3.17643 L34.33233,3.90356 C34.9149,3.52086 36.29363,3.02335 37.38113,2.985 L37.63358,2.985 L37.6335,2.985 Z M14.1945,1.0906 L19.3794,1.98995 L19.3794,13.01195 L15.5927,14.27485 L15.5927,5.37705 L11.6118,12.41875 L9.534,12.41875 L6.8348,5.85545 L4.0967,12.74405 L0.0381,12.74405 L4.5821,1.07205 L8.2523,0.09616 L11.204,6.35326 L14.1945,1.09116 L14.1945,1.0906 Z M21.3601,3.4633 C23.9622,3.02319 29.8656,1.6455 29.885,6.9459 L29.885,12.7629 L27.1469,12.7629 L26.93329,12.30366 C26.93329,12.30366 25.98176,13.01166 23.92339,13.01166 C21.67079,13.01166 20.48619,11.48086 20.48619,10.00746 C20.48619,7.57736 22.64169,7.00326 25.08849,7.00326 L26.79739,7.00326 C26.79739,6.00824 26.1954,5.64466 24.91379,5.66376 C23.10779,5.66376 21.67079,6.0656 21.36009,6.16127 L21.36009,3.46327 L21.3601,3.4633 Z M26.8168,9.1273 L26.8168,9.031625 L25.205,9.01249 C23.9428,9.01249 23.3408,9.20384 23.3408,9.8353 C23.3408,10.46676 23.86511,10.71551 24.7584,10.71551 C26.0983,10.71551 26.8168,10.23713 26.8168,9.12731 L26.8168,9.1273 Z M96.1818,4.3818 C97.1916,3.42505 98.415,2.9658 99.8908,2.9658 C101.3666,2.9658 102.6095,3.42504 103.5998,4.3818 C104.6096,5.31942 105.0951,6.5249 105.0951,7.9983 C105.0951,9.4717 104.59021,10.6772 103.5998,11.5957 C102.60943,12.51418 101.386,12.9734 99.8908,12.9734 C98.415,12.9734 97.1721,12.51416 96.1818,11.5957 C95.19143,10.65808 94.706,9.4526 94.706,7.9983 C94.706,6.5249 95.19147,5.3194 96.1818,4.3818 Z M99.8908,10.1797 C100.9783,10.1797 101.8715,9.31862 101.8715,7.9983 C101.8715,6.6588 100.99765,5.7786 99.8908,5.7786 C98.8033,5.7786 97.9101,6.67795 97.9101,7.9983 C97.929519,9.3186 98.80337,10.1797 99.8908,10.1797 Z M90.4143,2.9849 C92.6475,2.9849 93.599,4.1713 93.599,6.257 L93.599,12.7438 L90.0065,12.7438 L90.0065,7.0033 C90.0065,6.41011 89.79289,6.06568 89.32684,6.06568 C88.89962,6.06568 88.06464,6.21876 87.54034,6.58233 L87.54034,12.76293 L83.96724,12.76293 L83.96724,3.17633 L86.91894,3.17633 L87.11313,3.90346 C87.6957,3.52076 89.07443,3.02325 90.16193,2.9849 L90.41438,2.9849 L90.4143,2.9849 Z M66.9753,1.0905 L72.1602,1.98985 L72.1602,13.01185 L68.3735,14.27475 L68.3735,5.37695 L64.3732,12.41865 L62.3148,12.41865 L59.6156,5.85535 L56.8775,12.74395 L52.8189,12.74395 L57.3629,1.07195 L61.0331,0.09606 L63.9848,6.35316 L66.9753,1.09106 L66.9753,1.0905 Z M74.1215,3.4632 C76.7431,3.02309 82.6464,1.6454 82.6464,6.9458 L82.6464,12.7628 L79.9083,12.7628 L79.69469,12.30356 C79.69469,12.30356 78.74316,13.01156 76.68479,13.01156 C74.43219,13.01156 73.24759,11.48076 73.24759,10.00736 C73.24759,7.57726 75.40309,7.00316 77.84989,7.00316 L79.55879,7.00316 C79.55879,6.00814 78.9568,5.64456 77.67519,5.66366 C75.86919,5.66366 74.43219,6.0655 74.12149,6.16117 L74.12149,3.46317 L74.1215,3.4632 Z M79.5782,9.1272 L79.5782,9.031525 L77.9664,9.01239 C76.7042,9.01239 76.1022,9.20374 76.1022,9.8352 C76.1022,10.46666 76.62651,10.71541 77.5198,10.71541 C78.8597,10.71541 79.5782,10.23703 79.5782,9.12721 L79.5782,9.1272 Z" id="Shape"></path>
            </g>
        </g>
    </g>
</svg>